<svg xmlns="http://www.w3.org/2000/svg" width="1400" height="900" viewBox="0 0 1400 900">
<defs>
 <linearGradient id="bg" x1="0" y1="0" x2="1" y2="1"><stop stop-color="#121510"/><stop offset="1" stop-color="#080908"/></linearGradient>
 <radialGradient id="glow"><stop stop-color="#61e7f0" stop-opacity=".22"/><stop offset="1" stop-color="#61e7f0" stop-opacity="0"/></radialGradient>
 <pattern id="grid" width="42" height="42" patternUnits="userSpaceOnUse"><path d="M42 0H0V42" fill="none" stroke="#fff" stroke-opacity=".045"/></pattern>
 <filter id="blur"><feGaussianBlur stdDeviation="30"/></filter>
</defs>
<rect width="1400" height="900" fill="url(#bg)"/>
<rect width="1400" height="900" fill="url(#grid)"/>
<circle cx="1060" cy="190" r="330" fill="url(#glow)" filter="url(#blur)"/>
<g fill="none" stroke="#61e7f0" stroke-opacity=".24" stroke-width="2"><path d="M485 264 C555 264, 45 384, 115 384"/><path d="M258 384 C328 384, 785 504, 855 504"/><path d="M1011 504 C1081 504, 545 164, 615 164"/><path d="M784 164 C854 164, 305 284, 375 284"/><path d="M557 284 C627 284, 65 404, 135 404"/><path d="M330 404 C400 404, 805 524, 875 524"/><path d="M993 524 C1063 524, 565 184, 635 184"/></g>
<g fill="#0c0e0c" stroke="#fff" stroke-opacity=".16"><g><rect x="355" y="240" width="130" height="48" rx="4"/><circle cx="373" cy="264" r="5"/><line x1="389" y1="258" x2="470" y2="258"/><line x1="389" y1="269" x2="445" y2="269"/></g><g><rect x="115" y="360" width="143" height="48" rx="4"/><circle cx="133" cy="384" r="5"/><line x1="149" y1="378" x2="243" y2="378"/><line x1="149" y1="389" x2="218" y2="389"/></g><g><rect x="855" y="480" width="156" height="48" rx="4"/><circle cx="873" cy="504" r="5"/><line x1="889" y1="498" x2="996" y2="498"/><line x1="889" y1="509" x2="971" y2="509"/></g><g><rect x="615" y="140" width="169" height="48" rx="4"/><circle cx="633" cy="164" r="5"/><line x1="649" y1="158" x2="769" y2="158"/><line x1="649" y1="169" x2="744" y2="169"/></g><g><rect x="375" y="260" width="182" height="48" rx="4"/><circle cx="393" cy="284" r="5"/><line x1="409" y1="278" x2="542" y2="278"/><line x1="409" y1="289" x2="517" y2="289"/></g><g><rect x="135" y="380" width="195" height="48" rx="4"/><circle cx="153" cy="404" r="5"/><line x1="169" y1="398" x2="315" y2="398"/><line x1="169" y1="409" x2="290" y2="409"/></g><g><rect x="875" y="500" width="118" height="48" rx="4"/><circle cx="893" cy="524" r="5"/><line x1="909" y1="518" x2="978" y2="518"/><line x1="909" y1="529" x2="953" y2="529"/></g><g><rect x="635" y="160" width="131" height="48" rx="4"/><circle cx="653" cy="184" r="5"/><line x1="669" y1="178" x2="751" y2="178"/><line x1="669" y1="189" x2="726" y2="189"/></g></g>
<g fill="#61e7f0"><circle cx="373" cy="264" r="5"/><circle cx="133" cy="384" r="5"/><circle cx="873" cy="504" r="5"/><circle cx="633" cy="164" r="5"/><circle cx="393" cy="284" r="5"/><circle cx="153" cy="404" r="5"/><circle cx="893" cy="524" r="5"/><circle cx="653" cy="184" r="5"/></g>
<text x="70" y="82" fill="#61e7f0" font-family="monospace" font-size="18" letter-spacing="4">GOHIGHLEVEL / PROJECT SLOT 01</text>
<text x="70" y="760" fill="#f1efe8" font-family="Arial, sans-serif" font-size="72" font-weight="700" letter-spacing="-3">ADD YOUR SCREENSHOT</text>
<text x="74" y="814" fill="#9c9f97" font-family="monospace" font-size="18" letter-spacing="2">REPLACE THIS IMAGE SOURCE IN INDEX.HTML</text>
<rect x="70" y="846" width="1260" height="1" fill="#fff" fill-opacity=".12"/>
<text x="1280" y="82" text-anchor="end" fill="#fff" fill-opacity=".3" font-family="monospace" font-size="15">FB / AUTOMATION ARCHIVE</text>
</svg>