<svg xmlns="http://www.w3.org/2000/svg" width="1400" height="900" viewBox="0 0 1400 900">
<defs>
 <linearGradient id="bg" x1="0" y1="0" x2="1" y2="1"><stop stop-color="#121510"/><stop offset="1" stop-color="#080908"/></linearGradient>
 <radialGradient id="glow"><stop stop-color="#9d83ff" stop-opacity=".22"/><stop offset="1" stop-color="#9d83ff" stop-opacity="0"/></radialGradient>
 <pattern id="grid" width="42" height="42" patternUnits="userSpaceOnUse"><path d="M42 0H0V42" fill="none" stroke="#fff" stroke-opacity=".045"/></pattern>
 <filter id="blur"><feGaussianBlur stdDeviation="30"/></filter>
</defs>
<rect width="1400" height="900" fill="url(#bg)"/>
<rect width="1400" height="900" fill="url(#grid)"/>
<circle cx="1060" cy="190" r="330" fill="url(#glow)" filter="url(#blur)"/>
<g fill="none" stroke="#9d83ff" stroke-opacity=".24" stroke-width="2"><path d="M373 149 C443 149, 457 430, 527 430"/><path d="M649 430 C719 430, 810 251, 880 251"/><path d="M1015 251 C1085 251, 183 532, 253 532"/><path d="M401 532 C471 532, 536 353, 606 353"/><path d="M767 353 C837 353, 889 174, 959 174"/><path d="M1133 174 C1203 174, 262 455, 332 455"/><path d="M519 455 C589 455, 615 276, 685 276"/></g>
<g fill="#0c0e0c" stroke="#fff" stroke-opacity=".16"><g><rect x="174" y="125" width="199" height="48" rx="4"/><circle cx="192" cy="149" r="5"/><line x1="208" y1="143" x2="358" y2="143"/><line x1="208" y1="154" x2="333" y2="154"/></g><g><rect x="527" y="406" width="122" height="48" rx="4"/><circle cx="545" cy="430" r="5"/><line x1="561" y1="424" x2="634" y2="424"/><line x1="561" y1="435" x2="609" y2="435"/></g><g><rect x="880" y="227" width="135" height="48" rx="4"/><circle cx="898" cy="251" r="5"/><line x1="914" y1="245" x2="1000" y2="245"/><line x1="914" y1="256" x2="975" y2="256"/></g><g><rect x="253" y="508" width="148" height="48" rx="4"/><circle cx="271" cy="532" r="5"/><line x1="287" y1="526" x2="386" y2="526"/><line x1="287" y1="537" x2="361" y2="537"/></g><g><rect x="606" y="329" width="161" height="48" rx="4"/><circle cx="624" cy="353" r="5"/><line x1="640" y1="347" x2="752" y2="347"/><line x1="640" y1="358" x2="727" y2="358"/></g><g><rect x="959" y="150" width="174" height="48" rx="4"/><circle cx="977" cy="174" r="5"/><line x1="993" y1="168" x2="1118" y2="168"/><line x1="993" y1="179" x2="1093" y2="179"/></g><g><rect x="332" y="431" width="187" height="48" rx="4"/><circle cx="350" cy="455" r="5"/><line x1="366" y1="449" x2="504" y2="449"/><line x1="366" y1="460" x2="479" y2="460"/></g><g><rect x="685" y="252" width="110" height="48" rx="4"/><circle cx="703" cy="276" r="5"/><line x1="719" y1="270" x2="780" y2="270"/><line x1="719" y1="281" x2="755" y2="281"/></g></g>
<g fill="#9d83ff"><circle cx="192" cy="149" r="5"/><circle cx="545" cy="430" r="5"/><circle cx="898" cy="251" r="5"/><circle cx="271" cy="532" r="5"/><circle cx="624" cy="353" r="5"/><circle cx="977" cy="174" r="5"/><circle cx="350" cy="455" r="5"/><circle cx="703" cy="276" r="5"/></g>
<text x="70" y="82" fill="#9d83ff" font-family="monospace" font-size="18" letter-spacing="4">MAKE / PROJECT SLOT 05</text>
<text x="70" y="760" fill="#f1efe8" font-family="Arial, sans-serif" font-size="72" font-weight="700" letter-spacing="-3">ADD YOUR SCREENSHOT</text>
<text x="74" y="814" fill="#9c9f97" font-family="monospace" font-size="18" letter-spacing="2">REPLACE THIS IMAGE SOURCE IN INDEX.HTML</text>
<rect x="70" y="846" width="1260" height="1" fill="#fff" fill-opacity=".12"/>
<text x="1280" y="82" text-anchor="end" fill="#fff" fill-opacity=".3" font-family="monospace" font-size="15">FB / AUTOMATION ARCHIVE</text>
</svg>