<svg xmlns="http://www.w3.org/2000/svg" width="1400" height="900" viewBox="0 0 1400 900">
<defs>
 <linearGradient id="bg" x1="0" y1="0" x2="1" y2="1"><stop stop-color="#121510"/><stop offset="1" stop-color="#080908"/></linearGradient>
 <radialGradient id="glow"><stop stop-color="#ff6b2b" stop-opacity=".22"/><stop offset="1" stop-color="#ff6b2b" stop-opacity="0"/></radialGradient>
 <pattern id="grid" width="42" height="42" patternUnits="userSpaceOnUse"><path d="M42 0H0V42" fill="none" stroke="#fff" stroke-opacity=".045"/></pattern>
 <filter id="blur"><feGaussianBlur stdDeviation="30"/></filter>
</defs>
<rect width="1400" height="900" fill="url(#bg)"/>
<rect width="1400" height="900" fill="url(#grid)"/>
<circle cx="1060" cy="190" r="330" fill="url(#glow)" filter="url(#blur)"/>
<g fill="none" stroke="#ff6b2b" stroke-opacity=".24" stroke-width="2"><path d="M653 274 C723 274, 197 580, 267 580"/><path d="M464 580 C534 580, 975 426, 1045 426"/><path d="M1165 426 C1235 426, 773 272, 843 272"/><path d="M976 272 C1046 272, 571 578, 641 578"/><path d="M787 578 C857 578, 369 424, 439 424"/><path d="M598 424 C668 424, 167 270, 237 270"/><path d="M409 270 C479 270, 945 576, 1015 576"/></g>
<g fill="#0c0e0c" stroke="#fff" stroke-opacity=".16"><g><rect x="469" y="250" width="184" height="48" rx="4"/><circle cx="487" cy="274" r="5"/><line x1="503" y1="268" x2="638" y2="268"/><line x1="503" y1="279" x2="613" y2="279"/></g><g><rect x="267" y="556" width="197" height="48" rx="4"/><circle cx="285" cy="580" r="5"/><line x1="301" y1="574" x2="449" y2="574"/><line x1="301" y1="585" x2="424" y2="585"/></g><g><rect x="1045" y="402" width="120" height="48" rx="4"/><circle cx="1063" cy="426" r="5"/><line x1="1079" y1="420" x2="1150" y2="420"/><line x1="1079" y1="431" x2="1125" y2="431"/></g><g><rect x="843" y="248" width="133" height="48" rx="4"/><circle cx="861" cy="272" r="5"/><line x1="877" y1="266" x2="961" y2="266"/><line x1="877" y1="277" x2="936" y2="277"/></g><g><rect x="641" y="554" width="146" height="48" rx="4"/><circle cx="659" cy="578" r="5"/><line x1="675" y1="572" x2="772" y2="572"/><line x1="675" y1="583" x2="747" y2="583"/></g><g><rect x="439" y="400" width="159" height="48" rx="4"/><circle cx="457" cy="424" r="5"/><line x1="473" y1="418" x2="583" y2="418"/><line x1="473" y1="429" x2="558" y2="429"/></g><g><rect x="237" y="246" width="172" height="48" rx="4"/><circle cx="255" cy="270" r="5"/><line x1="271" y1="264" x2="394" y2="264"/><line x1="271" y1="275" x2="369" y2="275"/></g><g><rect x="1015" y="552" width="185" height="48" rx="4"/><circle cx="1033" cy="576" r="5"/><line x1="1049" y1="570" x2="1185" y2="570"/><line x1="1049" y1="581" x2="1160" y2="581"/></g></g>
<g fill="#ff6b2b"><circle cx="487" cy="274" r="5"/><circle cx="285" cy="580" r="5"/><circle cx="1063" cy="426" r="5"/><circle cx="861" cy="272" r="5"/><circle cx="659" cy="578" r="5"/><circle cx="457" cy="424" r="5"/><circle cx="255" cy="270" r="5"/><circle cx="1033" cy="576" r="5"/></g>
<text x="70" y="82" fill="#ff6b2b" font-family="monospace" font-size="18" letter-spacing="4">ZAPIER / PROJECT SLOT 04</text>
<text x="70" y="760" fill="#f1efe8" font-family="Arial, sans-serif" font-size="72" font-weight="700" letter-spacing="-3">ADD YOUR SCREENSHOT</text>
<text x="74" y="814" fill="#9c9f97" font-family="monospace" font-size="18" letter-spacing="2">REPLACE THIS IMAGE SOURCE IN INDEX.HTML</text>
<rect x="70" y="846" width="1260" height="1" fill="#fff" fill-opacity=".12"/>
<text x="1280" y="82" text-anchor="end" fill="#fff" fill-opacity=".3" font-family="monospace" font-size="15">FB / AUTOMATION ARCHIVE</text>
</svg>